<svg xmlns="http://www.w3.org/2000/svg" width="50" height="45" viewBox="0 0 62 56" fill="none">
  <path d="M16.9386 56.0062H4.03246C3.32799 56.0054 2.636 55.8202 2.02525 55.4691C1.4145 55.118 0.906244 54.6133 0.55098 54.0049C0.195715 53.3966 0.0058099 52.7059 0.000131206 52.0014C-0.00554749 51.297 0.173198 50.6033 0.51861 49.9893L27.428 2.059C27.6096 1.72941 27.8357 1.42639 28.0999 1.15847C28.3535 0.906104 28.6402 0.689505 28.9523 0.514666C29.5597 0.177133 30.243 0 30.9379 0C31.6327 0 32.3161 0.177133 32.9235 0.514666C33.2349 0.689553 33.521 0.906156 33.7738 1.15847C34.0477 1.42432 34.2827 1.72749 34.4718 2.059L61.3852 49.9833C61.7309 50.5978 61.9096 51.292 61.9037 51.9969C61.8978 52.7019 61.7073 53.393 61.3513 54.0015C60.9954 54.61 60.4863 55.1147 59.8747 55.4653C59.2631 55.816 58.5704 56.0004 57.8654 56.0002H44.9692C43.6285 53.455 41.6095 51.3304 39.1359 49.8617C36.6622 48.393 33.8304 47.6375 30.9539 47.6789C28.0779 47.6374 25.2465 48.3924 22.7729 49.8603C20.2993 51.3282 18.2801 53.4518 16.9386 55.9962V56.0062Z" fill="#172B4D"/>
  <path opacity="0.27" d="M27.5469 36.9342L31.1811 32.3594H33.0684L29.713 36.9322L27.5469 36.9342Z" fill="#172B4D"/>
  <path opacity="0.22" d="M30.4238 25.5664H36.1017L34.4972 27.572L28.9697 27.4357L30.4238 25.5664Z" fill="#172B4D"/>
  <path d="M30.4367 25.5781L24.1591 33.5384C23.8543 33.8618 23.6846 34.2894 23.6846 34.7338C23.6846 35.1781 23.8543 35.6057 24.1591 35.9291C24.5198 36.3338 24.9736 36.6445 25.4814 36.8342C25.9892 37.024 26.5356 37.0871 27.0733 37.0182L31.614 31.4185L36.1226 25.5781H30.4367Z" fill="white"/>
  <path d="M31.1883 32.3906H36.3547C36.3547 32.3906 37.869 32.7597 38.2621 33.6682C38.4879 34.2736 38.4879 34.9401 38.2621 35.5455C38.2621 35.5455 37.7466 36.9374 36.5372 36.9374H27.5781L31.1883 32.3906Z" fill="white"/>
  <path d="M26.2048 21H35.1639C35.7155 21 36.2446 21.2191 36.6346 21.6092C37.0247 21.9992 37.2438 22.5282 37.2438 23.0798C37.2438 23.353 37.19 23.6234 37.0855 23.8758C36.9809 24.1281 36.8277 24.3574 36.6346 24.5505C36.4415 24.7436 36.2122 24.8968 35.9599 25.0013C35.7075 25.1059 35.4371 25.1597 35.1639 25.1597H26.2048C25.9317 25.1597 25.6612 25.1059 25.4089 25.0013C25.1566 24.8968 24.9273 24.7436 24.7342 24.5505C24.541 24.3574 24.3878 24.1281 24.2833 23.8758C24.1788 23.6234 24.125 23.353 24.125 23.0798C24.125 22.5282 24.3441 21.9992 24.7342 21.6092C25.1242 21.2191 25.6532 21 26.2048 21Z" fill="white"/>
</svg>